<svg width="32" height="34" fill="none" xmlns="http://www.w3.org/2000/svg"><path d="M7.13 7.769h22.582a1 1 0 01.969 1.248l-1.9 7.434a3 3 0 01-2.907 2.256H9.025M0 1.5h4.652a2 2 0 011.975 1.685l3.02 18.971a2 2 0 001.975 1.686h16.581m-12.434 6.424c0 1.302-1.01 2.31-2.2 2.31-1.188 0-2.199-1.008-2.199-2.31 0-1.303 1.01-2.31 2.2-2.31 1.188 0 2.199 1.007 2.199 2.31zm12.977 0c0 1.302-1.01 2.31-2.2 2.31-1.188 0-2.199-1.008-2.199-2.31 0-1.303 1.01-2.31 2.2-2.31 1.188 0 2.199 1.007 2.199 2.31z" stroke="#000" stroke-width="1.5"/></svg>