<svg width="28" height="25" fill="none" xmlns="http://www.w3.org/2000/svg"><path d="M20.1 0c-2.383 0-4.614 1.009-6.1 2.7C12.514 1.008 10.283 0 7.9 0 3.544 0 0 3.313 0 7.385c0 3.188 2.034 6.877 6.045 10.962 3.087 3.144 6.445 5.578 7.4 6.249l.555.39.554-.39c.956-.671 4.314-3.105 7.4-6.249C25.967 14.262 28 10.574 28 7.385 28 3.313 24.456 0 20.1 0zm.495 17.18c-2.54 2.586-5.27 4.676-6.595 5.64-1.325-.964-4.056-3.054-6.595-5.64-3.637-3.704-5.559-7.091-5.559-9.795 0-3.12 2.716-5.66 6.054-5.66 2.196 0 4.224 1.12 5.293 2.922L14 6.008l.807-1.361c1.069-1.802 3.097-2.921 5.293-2.921 3.338 0 6.054 2.538 6.054 5.659 0 2.704-1.922 6.091-5.56 9.795z" fill="#E8AA31"/></svg>