<svg width="23" height="24" fill="none" xmlns="http://www.w3.org/2000/svg"><path d="M22.15 17.702l-2.827-2.984a1.927 1.927 0 00-2.826 0l-1.285 1.356a1.46 1.46 0 01-2.14 0l-5.569-5.883a1.66 1.66 0 010-2.26l1.285-1.356a2.192 2.192 0 00-.001-2.984L5.96.617A1.926 1.926 0 003.137.615l-1.03 1.078c-2.81 2.966-2.81 7.792 0 10.758l8.823 9.319c2.816 2.973 7.375 2.974 10.192 0l1.027-1.085c.78-.822.78-2.16 0-2.983zM4.076 1.612a.643.643 0 01.943 0l2.826 2.974a.73.73 0 010 .994l-.471.498-3.766-3.976.468-.49zm7.795 19.164L3.05 11.457C.876 9.162.756 5.559 2.682 3.113l3.755 3.964c-.987 1.18-.946 2.98.124 4.109l5.568 5.883c1.068 1.127 2.772 1.174 3.892.13l3.755 3.965c-2.309 2.03-5.715 1.922-7.904-.388zm9.335-1.085l-.47.497-3.77-3.978.472-.498a.642.642 0 01.942 0l2.826 2.984c.26.274.26.72 0 .995z" fill="#fff"/></svg>